<svg width="239" height="69" viewBox="0 0 239 69" fill="none" xmlns="http://www.w3.org/2000/svg">
<ellipse cx="36.2768" cy="34.7711" rx="36.0815" ry="33.8908" fill="#2E75B6"/>
<path d="M98.4297 25.9375V43H94.9141L88.0586 31.5625V43H84.543V25.9375H88.0586L94.9258 37.3867V25.9375H98.4297ZM107.113 43.2344C106.129 43.2344 105.246 43.0781 104.465 42.7656C103.684 42.4453 103.02 42.0039 102.473 41.4414C101.934 40.8789 101.52 40.2266 101.23 39.4844C100.941 38.7344 100.797 37.9375 100.797 37.0938V36.625C100.797 35.6641 100.934 34.7852 101.207 33.9883C101.48 33.1914 101.871 32.5 102.379 31.9141C102.895 31.3281 103.52 30.8789 104.254 30.5664C104.988 30.2461 105.816 30.0859 106.738 30.0859C107.637 30.0859 108.434 30.2344 109.129 30.5312C109.824 30.8281 110.406 31.25 110.875 31.7969C111.352 32.3438 111.711 33 111.953 33.7656C112.195 34.5234 112.316 35.3672 112.316 36.2969V37.7031H102.238V35.4531H109V35.1953C109 34.7266 108.914 34.3086 108.742 33.9414C108.578 33.5664 108.328 33.2695 107.992 33.0508C107.656 32.832 107.227 32.7227 106.703 32.7227C106.258 32.7227 105.875 32.8203 105.555 33.0156C105.234 33.2109 104.973 33.4844 104.77 33.8359C104.574 34.1875 104.426 34.6016 104.324 35.0781C104.23 35.5469 104.184 36.0625 104.184 36.625V37.0938C104.184 37.6016 104.254 38.0703 104.395 38.5C104.543 38.9297 104.75 39.3008 105.016 39.6133C105.289 39.9258 105.617 40.168 106 40.3398C106.391 40.5117 106.832 40.5977 107.324 40.5977C107.934 40.5977 108.5 40.4805 109.023 40.2461C109.555 40.0039 110.012 39.6406 110.395 39.1562L112.035 40.9375C111.77 41.3203 111.406 41.6875 110.945 42.0391C110.492 42.3906 109.945 42.6797 109.305 42.9062C108.664 43.125 107.934 43.2344 107.113 43.2344ZM117.859 39.7188L120.496 30.3203H122.641L121.949 34.0117L119.312 43H117.52L117.859 39.7188ZM116.523 30.3203L118.41 39.707L118.586 43H116.477L113.266 30.3203H116.523ZM125.055 39.5547L126.895 30.3203H130.164L126.953 43H124.855L125.055 39.5547ZM122.934 30.3203L125.559 39.6484L125.922 43H124.117L121.48 34.0234L120.812 30.3203H122.934ZM138.074 30.3203V32.7109H130.691V30.3203H138.074ZM132.52 27.1914H135.895V39.1797C135.895 39.5469 135.941 39.8281 136.035 40.0234C136.137 40.2188 136.285 40.3555 136.48 40.4336C136.676 40.5039 136.922 40.5391 137.219 40.5391C137.43 40.5391 137.617 40.5312 137.781 40.5156C137.953 40.4922 138.098 40.4688 138.215 40.4453L138.227 42.9297C137.938 43.0234 137.625 43.0977 137.289 43.1523C136.953 43.207 136.582 43.2344 136.176 43.2344C135.434 43.2344 134.785 43.1133 134.23 42.8711C133.684 42.6211 133.262 42.2227 132.965 41.6758C132.668 41.1289 132.52 40.4102 132.52 39.5195V27.1914ZM139.152 36.7891V36.543C139.152 35.6133 139.285 34.7578 139.551 33.9766C139.816 33.1875 140.203 32.5039 140.711 31.9258C141.219 31.3477 141.844 30.8984 142.586 30.5781C143.328 30.25 144.18 30.0859 145.141 30.0859C146.102 30.0859 146.957 30.25 147.707 30.5781C148.457 30.8984 149.086 31.3477 149.594 31.9258C150.109 32.5039 150.5 33.1875 150.766 33.9766C151.031 34.7578 151.164 35.6133 151.164 36.543V36.7891C151.164 37.7109 151.031 38.5664 150.766 39.3555C150.5 40.1367 150.109 40.8203 149.594 41.4062C149.086 41.9844 148.461 42.4336 147.719 42.7539C146.977 43.0742 146.125 43.2344 145.164 43.2344C144.203 43.2344 143.348 43.0742 142.598 42.7539C141.855 42.4336 141.227 41.9844 140.711 41.4062C140.203 40.8203 139.816 40.1367 139.551 39.3555C139.285 38.5664 139.152 37.7109 139.152 36.7891ZM142.527 36.543V36.7891C142.527 37.3203 142.574 37.8164 142.668 38.2773C142.762 38.7383 142.91 39.1445 143.113 39.4961C143.324 39.8398 143.598 40.1094 143.934 40.3047C144.27 40.5 144.68 40.5977 145.164 40.5977C145.633 40.5977 146.035 40.5 146.371 40.3047C146.707 40.1094 146.977 39.8398 147.18 39.4961C147.383 39.1445 147.531 38.7383 147.625 38.2773C147.727 37.8164 147.777 37.3203 147.777 36.7891V36.543C147.777 36.0273 147.727 35.543 147.625 35.0898C147.531 34.6289 147.379 34.2227 147.168 33.8711C146.965 33.5117 146.695 33.2305 146.359 33.0273C146.023 32.8242 145.617 32.7227 145.141 32.7227C144.664 32.7227 144.258 32.8242 143.922 33.0273C143.594 33.2305 143.324 33.5117 143.113 33.8711C142.91 34.2227 142.762 34.6289 142.668 35.0898C142.574 35.543 142.527 36.0273 142.527 36.543ZM156.543 33.0273V43H153.168V30.3203H156.332L156.543 33.0273ZM156.051 36.2148H155.137C155.137 35.2773 155.258 34.4336 155.5 33.6836C155.742 32.9258 156.082 32.2812 156.52 31.75C156.957 31.2109 157.477 30.8008 158.078 30.5195C158.688 30.2305 159.367 30.0859 160.117 30.0859C160.711 30.0859 161.254 30.1719 161.746 30.3438C162.238 30.5156 162.66 30.7891 163.012 31.1641C163.371 31.5391 163.645 32.0352 163.832 32.6523C164.027 33.2695 164.125 34.0234 164.125 34.9141V43H160.727V34.9023C160.727 34.3398 160.648 33.9023 160.492 33.5898C160.336 33.2773 160.105 33.0586 159.801 32.9336C159.504 32.8008 159.137 32.7344 158.699 32.7344C158.246 32.7344 157.852 32.8242 157.516 33.0039C157.188 33.1836 156.914 33.4336 156.695 33.7539C156.484 34.0664 156.324 34.4336 156.215 34.8555C156.105 35.2773 156.051 35.7305 156.051 36.2148ZM170.066 32.9453V43H166.68V30.3203H169.855L170.066 32.9453ZM169.598 36.2148H168.66C168.66 35.332 168.766 34.5195 168.977 33.7773C169.195 33.0273 169.512 32.3789 169.926 31.832C170.348 31.2773 170.867 30.8477 171.484 30.543C172.102 30.2383 172.816 30.0859 173.629 30.0859C174.191 30.0859 174.707 30.1719 175.176 30.3438C175.645 30.5078 176.047 30.7695 176.383 31.1289C176.727 31.4805 176.992 31.9414 177.18 32.5117C177.367 33.0742 177.461 33.75 177.461 34.5391V43H174.086V34.9141C174.086 34.3359 174.008 33.8906 173.852 33.5781C173.695 33.2656 173.473 33.0469 173.184 32.9219C172.902 32.7969 172.562 32.7344 172.164 32.7344C171.727 32.7344 171.344 32.8242 171.016 33.0039C170.695 33.1836 170.43 33.4336 170.219 33.7539C170.008 34.0664 169.852 34.4336 169.75 34.8555C169.648 35.2773 169.598 35.7305 169.598 36.2148ZM177.145 35.8281L175.938 35.9805C175.938 35.1523 176.039 34.3828 176.242 33.6719C176.453 32.9609 176.762 32.3359 177.168 31.7969C177.582 31.2578 178.094 30.8398 178.703 30.543C179.312 30.2383 180.016 30.0859 180.812 30.0859C181.422 30.0859 181.977 30.1758 182.477 30.3555C182.977 30.5273 183.402 30.8047 183.754 31.1875C184.113 31.5625 184.387 32.0547 184.574 32.6641C184.77 33.2734 184.867 34.0195 184.867 34.9023V43H181.48V34.9023C181.48 34.3164 181.402 33.8711 181.246 33.5664C181.098 33.2539 180.879 33.0391 180.59 32.9219C180.309 32.7969 179.973 32.7344 179.582 32.7344C179.176 32.7344 178.82 32.8164 178.516 32.9805C178.211 33.1367 177.957 33.3555 177.754 33.6367C177.551 33.918 177.398 34.2461 177.297 34.6211C177.195 34.9883 177.145 35.3906 177.145 35.8281ZM187.645 41.3711C187.645 40.8711 187.816 40.4531 188.16 40.1172C188.512 39.7812 188.977 39.6133 189.555 39.6133C190.133 39.6133 190.594 39.7812 190.938 40.1172C191.289 40.4531 191.465 40.8711 191.465 41.3711C191.465 41.8711 191.289 42.2891 190.938 42.625C190.594 42.9609 190.133 43.1289 189.555 43.1289C188.977 43.1289 188.512 42.9609 188.16 42.625C187.816 42.2891 187.645 41.8711 187.645 41.3711ZM199.68 40.5977C200.094 40.5977 200.461 40.5195 200.781 40.3633C201.102 40.1992 201.352 39.9727 201.531 39.6836C201.719 39.3867 201.816 39.0391 201.824 38.6406H205C204.992 39.5312 204.754 40.3242 204.285 41.0195C203.816 41.707 203.188 42.25 202.398 42.6484C201.609 43.0391 200.727 43.2344 199.75 43.2344C198.766 43.2344 197.906 43.0703 197.172 42.7422C196.445 42.4141 195.84 41.9609 195.355 41.3828C194.871 40.7969 194.508 40.1172 194.266 39.3438C194.023 38.5625 193.902 37.7266 193.902 36.8359V36.4961C193.902 35.5977 194.023 34.7617 194.266 33.9883C194.508 33.207 194.871 32.5273 195.355 31.9492C195.84 31.3633 196.445 30.9062 197.172 30.5781C197.898 30.25 198.75 30.0859 199.727 30.0859C200.766 30.0859 201.676 30.2852 202.457 30.6836C203.246 31.082 203.863 31.6523 204.309 32.3945C204.762 33.1289 204.992 34 205 35.0078H201.824C201.816 34.5859 201.727 34.2031 201.555 33.8594C201.391 33.5156 201.148 33.2422 200.828 33.0391C200.516 32.8281 200.129 32.7227 199.668 32.7227C199.176 32.7227 198.773 32.8281 198.461 33.0391C198.148 33.2422 197.906 33.5234 197.734 33.8828C197.562 34.2344 197.441 34.6367 197.371 35.0898C197.309 35.5352 197.277 36.0039 197.277 36.4961V36.8359C197.277 37.3281 197.309 37.8008 197.371 38.2539C197.434 38.707 197.551 39.1094 197.723 39.4609C197.902 39.8125 198.148 40.0898 198.461 40.293C198.773 40.4961 199.18 40.5977 199.68 40.5977ZM206.418 36.7891V36.543C206.418 35.6133 206.551 34.7578 206.816 33.9766C207.082 33.1875 207.469 32.5039 207.977 31.9258C208.484 31.3477 209.109 30.8984 209.852 30.5781C210.594 30.25 211.445 30.0859 212.406 30.0859C213.367 30.0859 214.223 30.25 214.973 30.5781C215.723 30.8984 216.352 31.3477 216.859 31.9258C217.375 32.5039 217.766 33.1875 218.031 33.9766C218.297 34.7578 218.43 35.6133 218.43 36.543V36.7891C218.43 37.7109 218.297 38.5664 218.031 39.3555C217.766 40.1367 217.375 40.8203 216.859 41.4062C216.352 41.9844 215.727 42.4336 214.984 42.7539C214.242 43.0742 213.391 43.2344 212.43 43.2344C211.469 43.2344 210.613 43.0742 209.863 42.7539C209.121 42.4336 208.492 41.9844 207.977 41.4062C207.469 40.8203 207.082 40.1367 206.816 39.3555C206.551 38.5664 206.418 37.7109 206.418 36.7891ZM209.793 36.543V36.7891C209.793 37.3203 209.84 37.8164 209.934 38.2773C210.027 38.7383 210.176 39.1445 210.379 39.4961C210.59 39.8398 210.863 40.1094 211.199 40.3047C211.535 40.5 211.945 40.5977 212.43 40.5977C212.898 40.5977 213.301 40.5 213.637 40.3047C213.973 40.1094 214.242 39.8398 214.445 39.4961C214.648 39.1445 214.797 38.7383 214.891 38.2773C214.992 37.8164 215.043 37.3203 215.043 36.7891V36.543C215.043 36.0273 214.992 35.543 214.891 35.0898C214.797 34.6289 214.645 34.2227 214.434 33.8711C214.23 33.5117 213.961 33.2305 213.625 33.0273C213.289 32.8242 212.883 32.7227 212.406 32.7227C211.93 32.7227 211.523 32.8242 211.188 33.0273C210.859 33.2305 210.59 33.5117 210.379 33.8711C210.176 34.2227 210.027 34.6289 209.934 35.0898C209.84 35.543 209.793 36.0273 209.793 36.543ZM223.879 32.9453V43H220.492V30.3203H223.668L223.879 32.9453ZM223.41 36.2148H222.473C222.473 35.332 222.578 34.5195 222.789 33.7773C223.008 33.0273 223.324 32.3789 223.738 31.832C224.16 31.2773 224.68 30.8477 225.297 30.543C225.914 30.2383 226.629 30.0859 227.441 30.0859C228.004 30.0859 228.52 30.1719 228.988 30.3438C229.457 30.5078 229.859 30.7695 230.195 31.1289C230.539 31.4805 230.805 31.9414 230.992 32.5117C231.18 33.0742 231.273 33.75 231.273 34.5391V43H227.898V34.9141C227.898 34.3359 227.82 33.8906 227.664 33.5781C227.508 33.2656 227.285 33.0469 226.996 32.9219C226.715 32.7969 226.375 32.7344 225.977 32.7344C225.539 32.7344 225.156 32.8242 224.828 33.0039C224.508 33.1836 224.242 33.4336 224.031 33.7539C223.82 34.0664 223.664 34.4336 223.562 34.8555C223.461 35.2773 223.41 35.7305 223.41 36.2148ZM230.957 35.8281L229.75 35.9805C229.75 35.1523 229.852 34.3828 230.055 33.6719C230.266 32.9609 230.574 32.3359 230.98 31.7969C231.395 31.2578 231.906 30.8398 232.516 30.543C233.125 30.2383 233.828 30.0859 234.625 30.0859C235.234 30.0859 235.789 30.1758 236.289 30.3555C236.789 30.5273 237.215 30.8047 237.566 31.1875C237.926 31.5625 238.199 32.0547 238.387 32.6641C238.582 33.2734 238.68 34.0195 238.68 34.9023V43H235.293V34.9023C235.293 34.3164 235.215 33.8711 235.059 33.5664C234.91 33.2539 234.691 33.0391 234.402 32.9219C234.121 32.7969 233.785 32.7344 233.395 32.7344C232.988 32.7344 232.633 32.8164 232.328 32.9805C232.023 33.1367 231.77 33.3555 231.566 33.6367C231.363 33.918 231.211 34.2461 231.109 34.6211C231.008 34.9883 230.957 35.3906 230.957 35.8281Z" fill="white"/>
<path d="M31.8169 24.5156V43H29.354L20.0483 28.7432V43H17.5981V24.5156H20.0483L29.3921 38.8105V24.5156H31.8169ZM38.1391 31.9932V43H35.7778V29.2637H38.0122L38.1391 31.9932ZM37.6567 35.6113L36.5649 35.5732C36.5734 34.6338 36.6961 33.7663 36.9331 32.9707C37.1701 32.1667 37.5213 31.4684 37.9868 30.876C38.4523 30.2835 39.0321 29.8265 39.7261 29.5049C40.4201 29.1748 41.2241 29.0098 42.1382 29.0098C42.7814 29.0098 43.3738 29.1029 43.9155 29.2891C44.4572 29.4668 44.9269 29.7503 45.3247 30.1396C45.7225 30.529 46.0314 31.0283 46.2515 31.6377C46.4715 32.2471 46.5815 32.9834 46.5815 33.8467V43H44.2329V33.9609C44.2329 33.2415 44.1102 32.666 43.8647 32.2344C43.6278 31.8027 43.2892 31.4896 42.8491 31.2949C42.409 31.0918 41.8927 30.9902 41.3003 30.9902C40.6063 30.9902 40.0265 31.113 39.561 31.3584C39.0955 31.6038 38.7231 31.9424 38.4438 32.374C38.1645 32.8057 37.9614 33.3008 37.8345 33.8594C37.716 34.4095 37.6567 34.9935 37.6567 35.6113ZM46.5561 34.3164L44.9819 34.7988C44.9904 34.0456 45.1131 33.3219 45.3501 32.6279C45.5955 31.9339 45.9468 31.3161 46.4038 30.7744C46.8693 30.2327 47.4406 29.8053 48.1177 29.4922C48.7947 29.1706 49.5692 29.0098 50.4409 29.0098C51.1772 29.0098 51.8289 29.1071 52.396 29.3018C52.9715 29.4964 53.4539 29.7969 53.8433 30.2031C54.241 30.6009 54.5415 31.113 54.7446 31.7393C54.9477 32.3656 55.0493 33.1104 55.0493 33.9736V43H52.688V33.9482C52.688 33.1781 52.5653 32.5814 52.3198 32.1582C52.0828 31.7266 51.7443 31.4261 51.3042 31.2568C50.8725 31.0791 50.3563 30.9902 49.7554 30.9902C49.2391 30.9902 48.7821 31.0791 48.3843 31.2568C47.9865 31.4346 47.6522 31.68 47.3813 31.9932C47.1105 32.2979 46.9031 32.6491 46.7593 33.0469C46.6238 33.4447 46.5561 33.8678 46.5561 34.3164Z" fill="white"/>
</svg>
