        <svg
          width="49"
          height="52"
          viewBox="0 0 49 52"
          fill="none"
          xmlns="http://www.w3.org/2000/svg"
        >
          <g clip-path="url(#clip0_0_1)">
            <path
              d="M24.5 15.5C28.7609 15.5 32.2143 12.0307 32.2143 7.75C32.2143 3.46934 28.7609 0 24.5 0C20.2391 0 16.7857 3.46934 16.7857 7.75C16.7857 12.0307 20.2391 15.5 24.5 15.5ZM21.7458 18.4062C15.8094 18.4062 11 23.2379 11 29.2018C11 30.1947 11.8016 31 12.79 31H36.21C37.1984 31 38 30.1947 38 29.2018C38 23.2379 33.1906 18.4062 27.2542 18.4062H21.7458Z"
              fill="white"
            />
          </g>
          <path
            d="M4.112 38.148C5.12 38.148 5.966 38.25 6.65 38.454C7.334 38.658 7.85 38.994 8.198 39.462C8.546 39.93 8.72 40.554 8.72 41.334C8.72 41.838 8.63 42.288 8.45 42.684C8.282 43.068 8.03 43.392 7.694 43.656C7.358 43.908 6.944 44.082 6.452 44.178V44.268C6.956 44.352 7.406 44.508 7.802 44.736C8.21 44.964 8.528 45.288 8.756 45.708C8.996 46.128 9.116 46.674 9.116 47.346C9.116 48.126 8.942 48.792 8.594 49.344C8.258 49.884 7.778 50.298 7.154 50.586C6.53 50.862 5.78 51 4.904 51H0.638V38.148H4.112ZM4.418 43.62C5.426 43.62 6.116 43.446 6.488 43.098C6.872 42.738 7.064 42.21 7.064 41.514C7.064 40.806 6.83 40.302 6.362 40.002C5.906 39.69 5.18 39.534 4.184 39.534H2.24V43.62H4.418ZM2.24 44.97V49.632H4.616C5.66 49.632 6.386 49.41 6.794 48.966C7.214 48.522 7.424 47.94 7.424 47.22C7.424 46.764 7.328 46.368 7.136 46.032C6.956 45.696 6.656 45.438 6.236 45.258C5.816 45.066 5.24 44.97 4.508 44.97H2.24ZM19.3991 46.158C19.3991 46.962 19.2971 47.676 19.0931 48.3C18.9011 48.912 18.6191 49.434 18.2471 49.866C17.8751 50.298 17.4251 50.628 16.8971 50.856C16.3691 51.072 15.7811 51.18 15.1331 51.18C14.5331 51.18 13.9751 51.072 13.4591 50.856C12.9551 50.628 12.5111 50.298 12.1271 49.866C11.7551 49.434 11.4671 48.912 11.2631 48.3C11.0591 47.676 10.9571 46.962 10.9571 46.158C10.9571 45.09 11.1251 44.19 11.4611 43.458C11.8091 42.714 12.3011 42.15 12.9371 41.766C13.5731 41.37 14.3231 41.172 15.1871 41.172C16.0151 41.172 16.7411 41.37 17.3651 41.766C18.0011 42.15 18.4991 42.714 18.8591 43.458C19.2191 44.19 19.3991 45.09 19.3991 46.158ZM12.5771 46.158C12.5771 46.914 12.6671 47.574 12.8471 48.138C13.0271 48.69 13.3091 49.116 13.6931 49.416C14.0771 49.716 14.5691 49.866 15.1691 49.866C15.7691 49.866 16.2611 49.716 16.6451 49.416C17.0291 49.116 17.3111 48.69 17.4911 48.138C17.6831 47.574 17.7791 46.914 17.7791 46.158C17.7791 45.39 17.6831 44.736 17.4911 44.196C17.3111 43.656 17.0291 43.242 16.6451 42.954C16.2611 42.654 15.7631 42.504 15.1511 42.504C14.2511 42.504 13.5971 42.828 13.1891 43.476C12.7811 44.124 12.5771 45.018 12.5771 46.158ZM29.1787 37.356C29.1307 37.956 28.9867 38.46 28.7467 38.868C28.5187 39.276 28.1707 39.582 27.7027 39.786C27.2467 39.99 26.6527 40.092 25.9207 40.092C25.1647 40.092 24.5587 39.99 24.1027 39.786C23.6587 39.582 23.3287 39.282 23.1127 38.886C22.9087 38.478 22.7827 37.968 22.7347 37.356H24.1927C24.2527 38.004 24.4147 38.442 24.6787 38.67C24.9427 38.886 25.3627 38.994 25.9387 38.994C26.4667 38.994 26.8807 38.88 27.1807 38.652C27.4807 38.412 27.6547 37.98 27.7027 37.356H29.1787ZM23.2027 47.238C23.2027 47.346 23.1967 47.502 23.1847 47.706C23.1847 47.898 23.1787 48.108 23.1667 48.336C23.1547 48.552 23.1427 48.762 23.1307 48.966C23.1187 49.158 23.1067 49.314 23.0947 49.434L27.9187 41.352H29.8267V51H28.3687V45.312C28.3687 45.12 28.3687 44.868 28.3687 44.556C28.3807 44.244 28.3927 43.938 28.4047 43.638C28.4167 43.326 28.4287 43.092 28.4407 42.936L23.6707 51H21.7267V41.352H23.2027V47.238ZM39.0674 42.684H36.0974V51H34.5494V42.684H31.6154V41.352H39.0674V42.684ZM42.3277 47.238C42.3277 47.346 42.3217 47.502 42.3097 47.706C42.3097 47.898 42.3037 48.108 42.2917 48.336C42.2797 48.552 42.2677 48.762 42.2557 48.966C42.2437 49.158 42.2317 49.314 42.2197 49.434L47.0437 41.352H48.9517V51H47.4937V45.312C47.4937 45.12 47.4937 44.868 47.4937 44.556C47.5057 44.244 47.5177 43.938 47.5297 43.638C47.5417 43.326 47.5537 43.092 47.5657 42.936L42.7957 51H40.8517V41.352H42.3277V47.238Z"
            fill="white"
          />
          <defs>
            <clipPath id="clip0_0_1">
              <rect
                width="27"
                height="31"
                fill="white"
                transform="translate(11)"
              />
            </clipPath>
          </defs>
        </svg>