      <svg
        width="60"
        height="60"
        viewBox="0 0 180 180"
        fill="none"
        xmlns="http://www.w3.org/2000/svg"
      >
        <circle cx="90" cy="90" r="90" fill="white" />
        <circle cx="90.6338" cy="90.6338" r="79.2253" fill="#2E75B6" />
        <path
          d="M78.9525 111H72.9212L50.015 75.9375V111H43.9837V65.5H50.015L72.9837 100.719V65.5H78.9525V111ZM94.14 77.1875L94.2962 80.9375C96.7754 78.0208 100.119 76.5625 104.327 76.5625C109.057 76.5625 112.275 78.375 113.984 82C115.109 80.375 116.567 79.0625 118.359 78.0625C120.171 77.0625 122.307 76.5625 124.765 76.5625C132.182 76.5625 135.952 80.4896 136.077 88.3438V111H130.296V88.6875C130.296 86.2708 129.744 84.4688 128.64 83.2812C127.536 82.0729 125.682 81.4688 123.077 81.4688C120.932 81.4688 119.15 82.1146 117.734 83.4062C116.317 84.6771 115.494 86.3958 115.265 88.5625V111H109.452V88.8438C109.452 83.9271 107.046 81.4688 102.234 81.4688C98.442 81.4688 95.8483 83.0833 94.4525 86.3125V111H88.6712V77.1875H94.14Z"
          fill="white"
        />
      </svg>