<?xml version="1.0" standalone="no"?>
<!DOCTYPE svg PUBLIC "-//W3C//DTD SVG 20010904//EN"
 "http://www.w3.org/TR/2001/REC-SVG-20010904/DTD/svg10.dtd">
<svg version="1.0" xmlns="http://www.w3.org/2000/svg"
 width="856.000000pt" height="859.000000pt" viewBox="0 0 856.000000 859.000000"
 preserveAspectRatio="xMidYMid meet">

<g transform="translate(0.000000,859.000000) scale(0.100000,-0.100000)"
fill="#000000" stroke="none">
<path d="M3925 8544 c-592 -56 -1225 -256 -1705 -538 -283 -166 -531 -348
-760 -561 -162 -149 -272 -269 -464 -505 -390 -477 -688 -1082 -831 -1685
-116 -486 -144 -964 -84 -1405 62 -461 130 -727 286 -1125 186 -473 475 -937
825 -1327 379 -420 789 -737 1263 -976 410 -207 808 -325 1320 -393 228 -30
700 -38 914 -15 553 60 987 187 1456 426 365 186 666 397 983 690 357 328 733
834 967 1300 99 197 197 442 259 647 114 383 154 621 177 1068 10 187 9 252
-5 434 -22 280 -40 411 -83 611 -93 437 -238 818 -448 1186 -331 577 -816
1103 -1354 1468 -253 171 -556 334 -820 440 -209 84 -595 185 -881 231 -282
44 -723 57 -1015 29z m855 -283 c500 -63 826 -159 1233 -362 496 -247 944
-609 1335 -1078 53 -64 117 -145 141 -181 24 -36 66 -94 91 -130 103 -141 282
-462 355 -635 115 -273 225 -650 264 -905 43 -278 55 -420 54 -675 -1 -469
-73 -903 -215 -1295 -220 -609 -543 -1109 -1022 -1585 -287 -285 -468 -424
-824 -634 -223 -132 -547 -276 -752 -336 -52 -15 -115 -34 -140 -42 -91 -29
-360 -83 -520 -103 -213 -26 -566 -36 -770 -21 -282 21 -519 63 -792 141 -208
59 -282 84 -413 140 -447 190 -848 456 -1184 785 -492 481 -815 991 -1065
1680 -68 188 -150 522 -185 755 -36 235 -49 577 -31 795 40 459 130 847 281
1201 224 528 538 985 960 1399 231 226 311 290 594 478 524 348 1160 570 1792
627 163 14 636 4 813 -19z"/>
<path d="M4124 7710 c-537 -36 -1052 -204 -1569 -513 -156 -93 -396 -263 -495
-350 -203 -179 -466 -472 -602 -672 -186 -274 -354 -649 -442 -985 -110 -424
-137 -913 -75 -1360 49 -352 176 -755 347 -1096 182 -364 392 -654 682 -945
343 -343 828 -642 1281 -789 363 -117 702 -171 1074 -172 527 0 1015 115 1479
349 114 57 446 269 501 320 11 10 54 45 95 78 280 225 616 624 804 955 133
233 275 568 350 826 114 396 162 874 126 1279 -27 307 -107 646 -216 919 -126
316 -256 546 -463 816 -448 585 -1056 993 -1814 1216 -203 60 -481 109 -668
119 -236 12 -277 12 -395 5z m-469 -375 c122 -31 222 -129 245 -238 6 -29 12
-127 13 -218 2 -147 0 -169 -19 -215 -30 -73 -66 -117 -120 -143 -82 -42 -155
-14 -194 73 l-18 39 30 54 c41 73 58 143 58 243 0 132 -33 180 -127 180 -58 0
-89 -17 -109 -58 -14 -30 -15 -56 -9 -181 9 -193 -10 -267 -87 -339 -58 -54
-148 -47 -220 17 l-41 37 27 46 c42 73 57 163 45 285 -13 144 8 223 82 308 92
104 282 151 444 110z m-388 -2018 c-4 -546 -7 -1040 -7 -1099 l0 -108 -127 0
-126 0 6 218 c4 119 10 611 13 1092 3 481 7 880 9 885 1 6 48 9 120 7 l118 -3
-6 -992z m537 596 c3 -219 11 -648 16 -953 6 -305 10 -621 10 -702 l0 -148
-164 0 -165 0 -1 1100 0 1100 149 0 149 0 6 -397z m1026 -1048 l0 -755 -145 0
-145 0 0 148 c0 81 -1 332 -1 557 -1 226 -1 499 0 608 l1 197 145 0 145 0 0
-755z m570 -104 l0 -858 23 -34 c12 -19 38 -43 58 -53 32 -17 39 -18 79 -5 25
8 52 26 64 42 23 31 22 -13 25 1400 l1 369 165 -3 166 -3 -2 -865 -1 -865 41
-38 c33 -31 48 -38 82 -38 55 0 95 26 119 76 20 40 20 59 18 888 l-3 846 168
0 167 0 0 -1440 0 -1440 -2285 0 -2285 0 0 587 0 586 172 -6 c321 -13 2869 -9
2884 4 12 10 14 149 14 861 l0 849 165 -1 165 -2 0 -857z m-3070 -58 l0 -593
-165 0 -165 0 0 596 0 596 165 -3 165 -4 0 -592z m4515 -2278 c-95 -147 -202
-274 -389 -460 -190 -189 -336 -313 -497 -419 -408 -272 -895 -439 -1414 -487
-284 -26 -734 23 -1062 115 -536 151 -1048 467 -1442 891 -88 94 -238 285
-294 373 l-47 72 2600 0 2600 0 -55 -85z"/>
<path d="M3077 2086 c-105 -28 -156 -132 -113 -229 30 -66 67 -93 173 -122 34
-10 70 -26 79 -36 21 -23 12 -64 -17 -80 -36 -19 -115 -13 -160 13 -47 26 -69
19 -83 -30 -19 -67 42 -102 175 -102 56 1 85 6 118 23 67 33 85 64 89 153 l4
75 -38 36 c-21 20 -75 53 -119 73 -86 40 -121 70 -111 95 14 37 103 46 153 16
29 -18 32 -18 46 -3 33 38 39 62 23 87 -28 43 -124 56 -219 31z"/>
<path d="M4301 2071 c-23 -23 -31 -48 -72 -231 -16 -74 -32 -136 -34 -139 -3
-2 -5 29 -5 70 -1 41 -5 118 -9 171 -9 108 -24 138 -71 138 -50 0 -53 -14 -46
-203 10 -268 15 -304 43 -338 32 -38 89 -41 121 -6 20 21 58 151 90 307 l9 45
30 -100 c17 -55 36 -126 43 -158 20 -100 82 -143 153 -106 29 16 34 24 52 84
23 77 99 265 107 265 12 0 17 -36 26 -189 7 -123 11 -146 27 -157 27 -20 59
-17 79 5 17 19 17 33 3 263 -8 134 -18 251 -22 260 -15 36 -122 51 -164 22
-36 -26 -119 -234 -138 -345 l-7 -44 -18 75 c-10 41 -25 117 -33 169 -17 100
-34 145 -60 155 -33 12 -85 6 -104 -13z"/>
<path d="M5218 2079 c-23 -13 -103 -125 -125 -175 l-18 -39 -5 91 c-6 106 -16
124 -71 124 -30 0 -42 -5 -55 -26 -16 -23 -16 -46 -6 -267 12 -241 12 -242 38
-264 32 -29 49 -29 78 0 20 20 25 38 31 115 4 51 11 92 15 92 5 0 32 -38 60
-86 29 -47 63 -96 76 -110 32 -32 87 -33 108 -2 19 27 9 53 -65 166 -30 45
-64 98 -77 118 l-23 37 24 26 c27 29 127 168 127 177 0 7 -66 34 -82 34 -7 0
-21 -5 -30 -11z"/>
<path d="M5448 2083 c-33 -3 -48 -9 -52 -21 -11 -36 -10 -532 0 -542 6 -6 68
-12 146 -13 121 -2 138 0 157 17 23 21 28 68 9 84 -7 5 -52 13 -100 17 l-88 7
0 54 0 54 85 0 85 0 0 50 0 50 -90 0 -90 0 0 60 0 60 78 0 c47 0 84 5 94 13
24 19 28 65 8 89 -15 19 -29 22 -106 24 -49 1 -110 0 -136 -3z"/>
<path d="M3432 2068 c-15 -15 -17 -436 -2 -490 18 -64 76 -92 115 -56 6 5 12
72 15 149 l5 140 44 -67 c53 -80 152 -198 186 -220 32 -21 102 -21 142 0 49
25 56 66 51 307 -3 187 -5 209 -22 228 -23 26 -87 29 -106 5 -10 -10 -15 -73
-19 -209 l-6 -193 -58 69 c-32 39 -90 116 -129 172 -117 169 -124 177 -167
177 -20 0 -42 -5 -49 -12z"/>
</g>
</svg>
