<?xml version="1.0" standalone="no"?>
<!DOCTYPE svg PUBLIC "-//W3C//DTD SVG 20010904//EN"
 "http://www.w3.org/TR/2001/REC-SVG-20010904/DTD/svg10.dtd">
<svg version="1.0" xmlns="http://www.w3.org/2000/svg"
 width="1024.000000pt" height="1024.000000pt" viewBox="0 0 1024.000000 1024.000000"
 preserveAspectRatio="xMidYMid meet">

<g transform="translate(0.000000,1024.000000) scale(0.100000,-0.100000)"
fill="#ffffff" stroke="none">
<path d="M4865 8745 c-326 -47 -595 -139 -865 -298 -474 -278 -834 -759 -979
-1307 -55 -208 -65 -287 -65 -510 -1 -234 11 -335 60 -533 59 -238 126 -393
267 -621 37 -60 66 -110 65 -111 -3 -3 -82 -39 -252 -116 -434 -196 -856 -555
-1118 -949 -88 -133 -208 -362 -266 -510 -97 -249 -165 -561 -177 -820 -11
-230 -13 -1534 -3 -1590 24 -134 130 -263 264 -321 l79 -34 3250 0 3250 0 55
22 c100 41 176 116 238 236 l27 52 3 700 c4 920 -5 1067 -86 1405 -54 223
-157 490 -249 645 -216 362 -391 570 -668 789 -55 44 -119 95 -142 113 -67 54
-266 170 -440 259 -89 45 -167 84 -174 86 -9 3 13 47 63 129 195 321 292 656
305 1059 20 625 -196 1178 -632 1615 -305 307 -752 530 -1203 601 -139 22
-481 27 -607 9z m474 -666 c188 -23 389 -92 566 -194 319 -185 549 -467 658
-810 62 -194 72 -257 72 -480 0 -234 -15 -336 -76 -513 -67 -193 -134 -314
-268 -480 -157 -194 -317 -323 -526 -423 -217 -104 -373 -141 -595 -142 -172
0 -295 18 -449 68 -154 50 -264 108 -479 254 -83 56 -225 207 -296 316 -183
279 -282 525 -306 764 -42 417 57 760 311 1083 180 229 415 392 709 491 232
79 420 97 679 66z m-1368 -3342 c213 -142 337 -206 527 -273 222 -79 429 -114
672 -114 404 0 800 128 1159 374 l123 84 52 -23 c152 -67 484 -239 571 -296
429 -280 720 -677 849 -1159 72 -265 76 -324 76 -1048 l0 -592 -282 2 -283 3
-5 675 c-4 545 -8 682 -19 710 -37 92 -123 174 -220 211 -80 30 -199 24 -262
-13 -61 -36 -125 -108 -157 -176 l-27 -57 -5 -675 -5 -675 -1639 0 -1639 0 -3
660 c-3 725 -2 713 -65 804 -138 203 -414 197 -538 -11 -51 -85 -54 -125 -58
-809 l-5 -637 -45 -6 c-25 -3 -155 -6 -289 -6 l-244 0 0 619 c0 501 3 643 15
738 41 309 126 567 262 791 228 375 508 617 938 808 124 55 404 171 416 173 3
1 61 -36 130 -82z"/>
<path d="M27 103 c-25 -4 -27 -8 -27 -54 0 -48 1 -49 30 -49 30 0 30 1 30 55
0 30 -1 54 -2 54 -2 -1 -15 -4 -31 -6z"/>
</g>
</svg>
